<?xml version="1.0" standalone="no"?>
<!DOCTYPE svg PUBLIC "-//W3C//DTD SVG 20010904//EN"
 "http://www.w3.org/TR/2001/REC-SVG-20010904/DTD/svg10.dtd">
<svg version="1.0" xmlns="http://www.w3.org/2000/svg"
 width="792.000000pt" height="792.000000pt" viewBox="0 0 792.000000 792.000000"
 preserveAspectRatio="xMidYMid meet">
<metadata>
Created by potrace 1.14, written by Peter Selinger 2001-2017
</metadata>
<g transform="translate(0.000000,792.000000) scale(0.100000,-0.100000)"
fill="#000000" stroke="none">
<path d="M3633 7903 c-55 -28 -66 -60 -127 -383 -31 -162 -49 -237 -59 -246
-13 -12 -255 -107 -272 -107 -6 0 -107 64 -225 143 -118 79 -231 150 -251 156
-62 22 -98 4 -232 -114 -285 -250 -306 -270 -316 -306 -16 -61 -3 -89 129
-286 6 -8 46 -69 91 -134 44 -66 85 -128 90 -139 8 -14 -2 -48 -43 -152 l-53
-134 -40 -7 c-22 -3 -49 -8 -60 -10 -46 -9 -202 -36 -225 -39 -104 -15 -256
-47 -269 -57 -35 -27 -50 -47 -58 -79 -5 -19 -9 -159 -8 -311 1 -370 -18 -345
315 -413 124 -25 250 -51 281 -56 l55 -10 57 -132 c32 -73 57 -136 57 -140 0
-4 -73 -109 -161 -233 -95 -132 -165 -240 -169 -260 -17 -75 -9 -85 345 -450
70 -72 115 -91 174 -70 20 6 141 77 270 157 129 79 239 143 245 141 6 -2 66
-26 134 -54 139 -58 121 -34 162 -223 11 -55 27 -127 35 -160 8 -33 17 -76 20
-95 11 -66 33 -141 48 -164 34 -51 64 -56 358 -59 151 -2 287 -1 302 1 16 3
44 20 62 38 32 32 40 53 60 169 27 155 67 384 70 401 3 15 35 34 133 76 l129
55 86 -56 c216 -140 351 -227 372 -238 39 -21 79 -23 117 -5 54 25 425 389
439 431 21 61 6 93 -151 328 -83 123 -154 231 -157 240 -4 10 72 200 112 280
0 1 12 4 25 6 223 41 540 112 559 126 14 9 34 30 45 45 20 26 21 40 21 316 0
275 -1 290 -21 316 -27 36 -63 62 -94 68 -14 2 -95 18 -180 36 -85 17 -166 33
-180 36 -66 12 -175 35 -176 37 -2 3 -37 89 -73 180 l-30 78 143 227 c170 270
176 281 176 325 0 42 -28 85 -112 170 -34 35 -109 112 -166 170 -124 126 -140
138 -197 140 -42 1 -59 -9 -286 -162 l-241 -163 -136 52 c-76 29 -138 53 -139
54 -1 1 -13 71 -28 156 -15 85 -29 169 -32 185 -3 17 -7 40 -8 52 -2 12 -6 34
-9 50 -3 15 -8 48 -11 73 -8 53 -24 87 -60 120 l-27 25 -301 2 c-261 2 -306 0
-334 -14z m461 -280 c3 -10 8 -36 11 -58 3 -23 8 -52 10 -65 10 -49 15 -77 20
-114 2 -21 6 -46 9 -55 3 -9 7 -36 10 -61 4 -25 9 -58 12 -75 6 -28 10 -55 13
-82 2 -20 60 -82 84 -89 12 -3 36 -12 52 -19 17 -7 113 -46 214 -85 151 -59
191 -71 223 -67 35 5 171 90 421 265 52 36 53 36 101 -14 12 -12 45 -46 75
-77 l53 -55 -147 -236 c-119 -191 -147 -243 -148 -273 -1 -50 164 -471 196
-501 27 -25 82 -46 152 -57 28 -5 55 -10 60 -11 9 -2 104 -22 185 -38 14 -2
58 -12 98 -20 40 -9 74 -16 75 -16 1 0 2 -59 2 -130 0 -72 0 -130 -1 -130 0 0
-43 -9 -95 -20 -52 -11 -103 -22 -114 -24 -11 -2 -65 -13 -120 -25 -55 -11
-112 -22 -128 -25 -105 -18 -112 -27 -226 -286 -97 -219 -106 -245 -102 -297
0 -12 68 -123 150 -246 l149 -225 -95 -91 c-52 -50 -99 -91 -104 -91 -5 0 -80
46 -167 103 -258 169 -279 181 -322 180 -50 -1 -455 -175 -493 -212 -28 -27
-48 -89 -61 -193 -4 -26 -8 -53 -11 -60 -2 -7 -6 -29 -9 -48 -3 -19 -8 -46
-11 -60 -3 -14 -10 -52 -15 -85 -19 -110 -8 -100 -107 -98 -48 1 -112 2 -141
2 -33 1 -54 6 -56 14 -4 15 -35 154 -40 183 -25 132 -72 324 -83 345 -9 14
-23 31 -33 37 -23 14 -416 181 -452 192 -47 14 -96 -8 -312 -142 -114 -71
-215 -132 -222 -135 -13 -5 -39 19 -168 155 l-28 31 43 63 c24 35 47 65 50 68
3 3 27 37 54 75 27 39 70 100 97 137 56 77 77 123 73 159 -3 24 -92 236 -175
416 -22 45 -49 88 -62 97 -21 14 -135 43 -243 62 -16 3 -50 10 -75 15 -25 6
-56 13 -70 15 -66 12 -137 28 -150 35 -13 6 -16 29 -15 133 1 69 4 129 8 133
7 6 138 32 247 48 19 2 46 7 60 10 14 3 41 8 60 10 19 3 42 7 50 9 8 1 37 6
64 11 85 14 104 40 201 287 91 232 101 264 91 301 -3 13 -71 121 -151 240
l-145 216 36 33 c20 18 42 38 48 43 6 6 35 31 64 57 l53 47 219 -145 c197
-132 222 -146 261 -146 31 0 102 23 239 76 281 110 285 112 309 160 17 34 39
126 68 285 2 14 13 71 24 126 12 55 21 106 21 113 1 9 36 12 139 12 122 0 138
-2 143 -17z"/>
<path d="M3733 6495 c-314 -80 -535 -312 -608 -640 -13 -58 -14 -265 -2 -310
3 -11 8 -33 12 -50 28 -112 109 -260 192 -351 101 -110 255 -201 406 -239 121
-31 302 -29 416 5 343 99 578 392 597 745 9 153 -18 282 -88 420 -99 197 -288
351 -510 416 -113 33 -295 35 -415 4z m316 -268 c162 -42 294 -146 363 -288
120 -250 43 -535 -189 -693 -120 -81 -308 -107 -450 -62 -164 53 -280 161
-345 323 -117 294 46 617 361 713 55 17 205 21 260 7z"/>
<path d="M2087 3404 c-1 -1 -42 -4 -92 -8 -130 -10 -157 -14 -292 -46 -131
-32 -267 -79 -400 -141 -46 -21 -86 -39 -88 -39 -2 0 -33 -13 -68 -30 -36 -16
-68 -30 -71 -30 -3 0 -29 -11 -58 -24 -29 -14 -210 -91 -403 -171 -192 -81
-368 -155 -390 -165 -22 -9 -66 -28 -97 -40 -80 -33 -103 -59 -103 -121 0 -39
5 -54 26 -74 47 -48 78 -44 255 30 87 37 177 75 200 85 22 11 65 29 95 40 76
30 428 179 463 196 16 8 33 14 37 14 4 0 36 13 71 29 349 162 554 235 723 256
28 3 66 8 85 10 48 7 257 7 300 1 93 -13 136 -20 145 -22 6 -2 24 -6 40 -9 42
-8 127 -34 147 -46 10 -5 23 -9 28 -9 19 0 168 -78 229 -119 61 -42 98 -77
191 -180 191 -213 544 -380 1005 -476 151 -31 136 -29 290 -49 214 -29 306
-36 506 -41 68 -1 147 -6 174 -10 69 -10 164 -55 213 -100 67 -60 84 -155 42
-235 -23 -44 -81 -111 -119 -135 -100 -66 -382 -147 -591 -170 -232 -26 -584
-26 -800 1 -270 33 -607 109 -853 193 -136 46 -151 49 -184 38 -63 -21 -93
-85 -68 -144 18 -42 43 -57 166 -98 257 -87 545 -157 789 -190 25 -3 58 -8 73
-11 201 -33 672 -38 897 -9 243 31 488 98 643 177 23 11 69 42 102 67 1017
792 1676 1178 2061 1207 136 11 217 -24 264 -114 93 -179 -93 -419 -585 -754
-131 -89 -411 -268 -420 -268 -2 0 -31 -18 -64 -40 -33 -22 -63 -40 -66 -40
-3 0 -24 -12 -47 -26 -23 -15 -182 -109 -354 -210 -405 -238 -605 -359 -1069
-651 -339 -212 -495 -304 -620 -363 -251 -120 -384 -139 -593 -86 -274 70
-568 205 -1152 534 -515 289 -669 368 -815 418 -158 55 -284 37 -484 -68 -164
-87 -594 -366 -611 -397 -31 -59 -6 -131 54 -156 44 -19 78 -9 169 51 125 82
321 210 349 227 27 16 51 31 138 79 64 35 181 78 213 78 82 0 293 -97 667
-306 598 -335 786 -434 985 -519 61 -25 124 -53 140 -60 64 -28 214 -77 295
-96 309 -74 542 -22 944 208 73 42 509 312 596 368 53 35 340 212 480 297 117
70 241 144 615 363 763 448 1122 703 1306 927 24 29 47 55 50 58 19 17 81 135
98 188 87 259 -67 523 -334 573 -111 21 -320 -6 -450 -57 -22 -9 -42 -16 -45
-16 -3 0 -14 -4 -25 -8 -58 -21 -62 -21 -80 7 -41 64 -149 147 -249 193 -112
50 -186 65 -321 64 -87 0 -114 -5 -203 -35 l-103 -35 -20 32 c-33 55 -130 132
-217 175 -101 49 -199 71 -312 68 -183 -4 -334 -69 -720 -309 -118 -74 -419
-280 -547 -374 -45 -34 -91 -68 -104 -76 -12 -8 -34 -24 -48 -36 -14 -11 -41
-30 -59 -43 l-32 -23 -111 31 c-205 58 -391 136 -518 219 -72 48 -104 75 -166
141 -177 191 -289 271 -489 350 -135 54 -311 96 -446 107 -61 5 -200 10 -203
8z m3606 -239 c89 -31 204 -113 180 -128 -5 -3 -49 -27 -98 -52 -217 -114
-531 -302 -773 -463 l-113 -76 -107 3 c-59 1 -123 4 -142 6 -19 2 -66 6 -105
10 -38 4 -81 8 -95 10 -14 2 -45 7 -70 10 -25 4 -46 8 -47 9 -2 1 64 49 145
106 460 326 784 522 931 566 31 9 61 18 66 20 35 11 172 -1 228 -21z m826
-192 c90 -24 230 -103 244 -138 3 -6 -36 -32 -87 -58 -103 -53 -296 -166 -387
-227 -33 -22 -62 -40 -64 -40 -8 0 -279 -187 -473 -328 -118 -84 -215 -152
-216 -150 -1 1 -10 28 -19 58 -37 122 -138 231 -267 289 l-40 18 103 64 c56
35 111 69 122 75 11 6 73 43 138 82 65 40 120 72 122 72 2 0 28 14 57 31 29
17 123 66 208 109 308 154 411 181 559 143z"/>
</g>
</svg>
